<?xml version="1.0" encoding="UTF-8"?><svg id="Layer_1" xmlns="http://www.w3.org/2000/svg" viewBox="0 0 207.35 108.47"><defs><style>.cls-1{fill:#edebe9;}.cls-2{fill:#ef8789;}</style></defs><g><g><path class="cls-1" d="M38.63,60.66c1.74,.65,1.66,3.04,1.73,5.25l-.08,3.58h-.08c-.15,.76-.23,2.29-1.42,2.21-.08,0-.24,0-.32,0-2.57-.54-4.45-1.83-6.62-3.47-1.34-1-3.64-3.05-5.11-4.37,0,0-.01-.01-.02-.02-1.26-1-4.07-3.3-5.78-4.71-.3-.25-.75-.03-.75,.36,0,2.87-.02,5.87-.55,8.55v.15l-.08,.08c0,.32-.08,.68-.16,1.07l-.08,.3c-.27,1.38-.96,1.96-1.97,2.06-1.71,0-2.03-2.22-2.36-3.58-.62-2.32-.83-4.83-1.02-7.47,0-.01,0-.02,0-.03-.03-2.35,.06-4.81,.24-6.9,.5-8.48,1.91-17.13,4.94-24.84,0-.02,.01-.04,.02-.05,.08-.35,.19-.69,.44-1.19,.21-.44-.21-.91-.67-.75-5.18,1.95-9.32,4.18-13.61,7.92-.02,0-.59,.67-.62,.69-.76,1.03,2.46,1.4,3.19,1.31,1.8-.09,1.68,3.56,1.73,4.93,0,.02,0,.03,0,.05l-.16,2.03v.08c-.58,1.4-.97,1.39-2.44,1.45-3.79,0-6.17-3.03-6.7-6.78-.56-2.65-.39-6.51,.63-8.61,.63-1.37,1.79-2.74,3.47-4.11,5.31-4.52,11.54-7.67,18.68-9.44,5.62-1.5,11.76-2.76,15.92,.99,1.05,1.02,2.06,1,3.83,3.84s4.6,9.2,3.19,15.93-6.39,8.66-8.51,9.99-6.7,2.37-11.11,3.34c-.44,.1-.56,.66-.21,.93,1.98,1.55,6.51,6.32,7.93,7.25,1.63,1.07,3.1,1.73,4.41,1.98h.08ZM24.09,24.78c-.71,.35-1.42,6.73-1.77,8.85s-1.01,7.21-1.01,7.21c-.06,.32,.23,.61,.55,.54,2.9-.63,5.67-1.41,8.31-2.33,2.84-.99,5.1-2.04,6.78-3.16,4.51-3.01,2.8-9.01-1.34-11.35-1.37-.76-2.97-1.14-4.81-1.14-2.15,0-5.99,1.03-6.7,1.38Z"/><path class="cls-1" d="M73.14,48.65c-.46,6.97-7.66,21.73-15.54,21.66-16.62-.78-8.62-28.57-5.99-42.27,.31-1.74,2.05-2.85,3.75-2.39,1.64,.44,2.85,.98,3.66,1.63,1.26,1.02,1.89,2.59,1.89,4.72,.2,.53-2.32,9.87-3.11,13.48-.65,2.96-1.12,6.08-1.46,8.99-.6,4.41-.35,10.26,3.94,10.13,.66,0,1.39-.45,2.2-1.35,1.39-1.75,2.94-3.82,4.19-5.81,1.58-2.28,2.81-4.9,3.71-7.84l1.09-1.5c.31-.93,1.79-.55,1.68,.55Z"/><path class="cls-1" d="M82.55,42.32s-.04,.01-.06,.01c-3.71,.84-9.68-.61-10.32-3.92-.1-.3-.19-.91-.21-1.21-.33-2.31-.25-5.6,.59-8.17v-.1c.14-.54,.21-.95,.35-1.49,.65-2.87,2.39-6.29,4.39-8.61,1.73-1.81,4.91-3.29,7.91-2.78,3.4,.53,6.07,1.75,7.1,4.64,.39,.92,.63,1.8,.69,2.75,.75,6.44-1.63,16.4-10.45,18.88Zm-3.06-8.59s0,.02,0,.03c.07,.18,.95,2.3,2.03,2.23,.99-.06,1.6-.52,1.75-.64,.02-.02,.04-.03,.06-.06,3.44-3.96,4.97-9.63,3.51-14.12-.28-1.33-1.01-2.96-2.56-2.63-.85,.25-1.75,1.11-2.69,2.57-2.03,3.12-3.41,7.44-2.63,10.75l-.16-.48c.02,.18,.08,.26,.16,.48l.54,1.86Z"/><path class="cls-1" d="M135.58,41.72c.14,7.63-1.52,16.13-6,21.81-4.49,5.49-9.57,8.61-15.25,9.35-17.31,2.3-24.5-14.59-21.29-29.8,1.75-10.6,7.46-24.49,17.56-26.41,0,0,.02,0,.03,0,.97-.13,8.33-1.78,11.96,4.14,4.49,7.85,3.2,14.18,1.98,19.41-.97,3.58-2.64,6.93-5,9.74-2.34,2.71-4.9,4.23-7.7,4.58-3.32,.42-4.8,4.37-2.55,6.84,2.17,2.38,5.15,3.57,8.36,3.11,9.63-1.86,14.16-14.26,15.75-23.19,.1-1.22,1.91-1.29,2.21-.09l.07,.5h-.1Zm-20.56-1.72c1.41-4.06,2.39-7.28,2.96-9.65,.57-2.31,.76-4.22,.57-5.71-.41-2.38-1.04-3.7-2.56-3.75s-2.98,2.5-3.63,3.52c-3.17,4.43-8.54,21.48-5.58,23.6,.06,.04,.13,.07,.2,.08,2.35,.36,6.28-3.2,8.05-8.09Z"/><path class="cls-1" d="M156.31,53.62c.03,5.22-5.71,16.62-11.67,16.3-5.2-.24-7.77-2.28-10.17-8.53-4.66-13.43-2.56-34.03,1.58-48.21,2.63-8.78,5.44-13.18,8.44-13.18,.84,0,4.08,0,5.85,1.77s2.47,3.88,2.83,5.65c0,.01,0,.02,0,.04,1.22,8.61,.15,20.25-2.93,28.8-1.59,4.53-4.94,8.86-8.51,12.44-1.36,1.37-1.97,3.32-1.6,5.21,.48,2.47,1.04,4.43,1.68,5.88,.89,2.49,2.86,3.62,5.05,3.2,4.87-.91,6.78-6.25,8.28-10.36,0-.1,.05-.15,.16-.15l.32,.08c.47,.15,.71,.51,.71,1.07Zm-16.6-13.1c.1,.1,.32,.15,.63,.15,1.31,0,2.39-.86,3.23-2.59,1.07-2.23,1.81-4.66,2.52-7.39,1.79-6.96,2.68-13.28,2.68-18.96,0-3.35-.42-5.03-1.26-5.03-.74,0-1.45,.94-2.13,2.82-3.16,8.37-5.49,21.23-5.68,30.16v.84Z"/><path class="cls-1" d="M190.33,71.06c.08,1.37-1.13,6.57-3.21,5.27-.7-.58-1.93-1.41-2.63-1.72-.91-.44-2.25-.6-3.42-.57-.68,0-1.2,.62-1.08,1.29,1.85,11.04,3.94,20.58-.9,28.6-5.94,9.2-24.4,2.79-29.6-4.68-7.2-10.68,.54-20.35,15.03-26.21,.02,0,.04-.01,.06-.02,1.28-.34,3.98-1.07,5.26-1.42,.74-.2,1.23-.51,1.5-.91,.16-.2,.24-.51,.24-.91,0-.66-.16-1.52-.47-2.59-.19-.9-1.31-1.26-1.92-.55-2.56,3.08-6.2,5.09-10.14,4.13-2.21-.46-3.77-1.46-4.69-3.01-3.54-6.34,.33-21.68,3.51-30.58,1.41-3.61,6.43-4.67,8.83-1.29,.95,1.17,.55,2.34-.08,4.11l-.87,2.13c-2.35,6.62-5.58,13.29-5.75,20.22,0,.94,1.11,1.44,1.82,.83,1.56-1.22,3.08-4.96,4.1-7.03,3.42-6.78,7.36-13.26,9.22-20.18,.32-1.42,.63-2.54,.95-3.35,.32-.81,.71-1.37,1.18-1.68,2.62-2.11,7.05,.06,7.65,3.12,.34,2.5-.5,3.89-1.66,6.63,0,0-.78,1.71-.84,1.84,0,0,0,0,0,.02-.13,.31-2.57,7.81-2.75,8.34,0,.02-.01,.04-.02,.06-1.17,5.08-.99,11.05-.56,16.32h0c.04,.96,.93,1.65,1.87,1.46l.75-.15s.02,0,.03,0c2.66-.39,7.66-1.07,8.53,1.64,.09,.17,.08,.35,.09,.87Zm-16.79,17.52c0-2.79-.32-6.17-.95-10.13l-.33-2.76c-.03-.27-.3-.46-.57-.4-9.43,2.24-16.06,6.85-16.84,14.64,0,.02,0,.03,0,.05-.16,3.63,1.58,7.63,4.57,9.72,2.13,1.71,5.58,2.03,8.04,1.07,4.05-1.32,6.07-5.38,6.07-12.19Z"/></g><path class="cls-1" d="M95.54,61.87c0,.25-.1,.5-.28,.68-4.56,4.74-10.41,8.79-13.99,5.36-.02-.02-.04-.04-.06-.06-2.44-2.96-.65-7.57,1.23-12.64,.87-2.21,1.3-3.61,1.29-4.2-.02-1.17-.96-1.02-1.77-.49-2.22,1.56-4.3,4.17-6.17,6.31-.69,.84-1.12,1.73-1.28,2.67-.27,1.59-.44,3.04-.52,4.37-.04,.83-.05,1.9-.05,3.21,0,.46-.33,.87-.82,.98l-4.17,1c-.67,.16-1.34-.28-1.4-.92-.87-8.23,.4-13.94,3.83-21.52,.14-.31,.43-.53,.78-.6l4.46-.88c.84-.17,1.56,.58,1.3,1.33-.41,1.17-.77,2.25-1.08,3.25s1.12,1.78,1.9,.98c2.98-2.95,5.73-5.74,9.2-5.94,2.01-.04,3.45,1.75,3.42,3.74,.02,1.79-.77,4.74-2.35,8.85-1.15,3.19-2.88,7.03-.2,7.17,1.08,0,2.67-1.11,4.77-3.3,.67-.7,1.94-.26,1.95,.68Z"/></g><path class="cls-1" d="M57.87,12.43c-1.38,1.04-3.43,1.43-4.52,4.45-.77,2.14,.28,4.77,2.7,5.22,3.85,.72,5.64,3.83,8.35-.56s-4.81-10.42-6.53-9.12Z"/><path class="cls-2" d="M202.68,72.9c-1.06-1.06-1.63-2.77-4.35-3.34-1.92-.4-4.05,.81-4.15,2.93-.16,3.38-2.61,5.28,1.47,7.07s13.54-4.19,11.37-4.64c-1.92-.4-3.03-.71-4.35-2.02Z"/></svg>